<?xml version="1.0" standalone="no"?>
<!DOCTYPE svg PUBLIC "-//W3C//DTD SVG 1.1//EN" "http://www.w3.org/Graphics/SVG/1.1/DTD/svg11.dtd" >
<svg xmlns="http://www.w3.org/2000/svg">
<metadata>
Created by FontForge 20120731 at Thu Jan 21 16:53:03 2016
 By Ads
</metadata>
<defs>
<font id="iconfont" horiz-adv-x="1024" >
  <font-face 
    font-family="iconfont"
    font-weight="500"
    font-stretch="normal"
    units-per-em="1024"
    panose-1="2 0 6 3 0 0 0 0 0 0"
    ascent="896"
    descent="-128"
    x-height="792"
    bbox="0 -212 1090 839"
    underline-thickness="50"
    underline-position="-100"
    unicode-range="U+0078-E639"
  />
<missing-glyph horiz-adv-x="374" 
d="M34 0v682h272v-682h-272zM68 34h204v614h-204v-614z" />
    <glyph glyph-name=".notdef" horiz-adv-x="374" 
d="M34 0v682h272v-682h-272zM68 34h204v614h-204v-614z" />
    <glyph glyph-name=".null" horiz-adv-x="0" 
 />
    <glyph glyph-name="nonmarkingreturn" horiz-adv-x="341" 
 />
    <glyph glyph-name="x" unicode="x" horiz-adv-x="1001" 
d="M281 543q-27 -1 -53 -1h-83q-18 0 -36.5 -6t-32.5 -18.5t-23 -32t-9 -45.5v-76h912v41q0 16 -0.5 30t-0.5 18q0 13 -5 29t-17 29.5t-31.5 22.5t-49.5 9h-133v-97h-438v97zM955 310v-52q0 -23 0.5 -52t0.5 -58t-10.5 -47.5t-26 -30t-33 -16t-31.5 -4.5q-14 -1 -29.5 -0.5
t-29.5 0.5h-32l-45 128h-439l-44 -128h-29h-34q-20 0 -45 1q-25 0 -41 9.5t-25.5 23t-13.5 29.5t-4 30v167h911zM163 247q-12 0 -21 -8.5t-9 -21.5t9 -21.5t21 -8.5q13 0 22 8.5t9 21.5t-9 21.5t-22 8.5zM316 123q-8 -26 -14 -48q-5 -19 -10.5 -37t-7.5 -25t-3 -15t1 -14.5
t9.5 -10.5t21.5 -4h37h67h81h80h64h36q23 0 34 12t2 38q-5 13 -9.5 30.5t-9.5 34.5q-5 19 -11 39h-368zM336 498v228q0 11 2.5 23t10 21.5t20.5 15.5t34 6h188q31 0 51.5 -14.5t20.5 -52.5v-227h-327z" />
    <glyph glyph-name="uniE600" unicode="&#xe600;" 
d="M583 438q-30 28 -53 28q-14 0 -28.5 -8t-28.5 -20q-7 -8 -280 -254v-188q0 -3 0.5 -6t1.5 -5.5t3 -5t4 -5.5q9 -9 22 -9h173q7 0 11.5 4.5t4.5 11.5v134q1 7 4 11q5 5 11 5h195q3 0 6 -1.5t5 -3.5q5 -4 5 -11v-134q0 -3 1 -6t3 -5q5 -5 11 -5h177q13 0 22 9t9 22v187
q-271 247 -279 255zM976 272q0 10 -5 19.5t-15 18.5l-22 22q-8 9 -18.5 19t-23 21.5t-26.5 24.5t-29 28q-7 7 -14.5 14t-15.5 14.5t-15.5 15t-15.5 14.5q-31 30 -62 59q-28 27 -54 52q-24 22 -42 40q-17 16 -22 20q-28 27 -67 26q-20 0 -38.5 -8t-34.5 -25q-3 -2 -11 -9.5
t-21 -19.5q-27 -25 -65 -61q-38 -35 -82 -75q-42 -38 -83 -76q-19 -17 -35.5 -32.5t-30.5 -28.5q-28 -25 -33 -30q-14 -14 -15 -36t17 -38q16 -14 38 -13.5t36 11.5q4 3 26 23q23 21 52 48q31 28 66.5 60.5t67.5 62.5q31 29 57 53q24 22 33 30q27 24 55 25q9 0 18.5 -2.5
t19 -8t18.5 -14.5q6 -5 30 -27q24 -23 55 -52q16 -15 33 -31t35 -33q12 -11 23.5 -22t23 -21t21.5 -20q39 -36 55 -51q22 -21 27 -24q13 -12 35.5 -13t39.5 14q15 14 14 36z" />
    <glyph glyph-name="uniE601" unicode="&#xe601;" 
d="M510 301zM853 747h-686q-28 0 -52 -14t-37.5 -37.5t-13.5 -51.5v-686q0 -21 8 -40t22 -33t33 -22t40 -8h686q42 0 72.5 30.5t30.5 72.5v686q0 43 -30.5 73t-72.5 30zM831 269h-289v-289h-64v289h-289v64h289v289h64v-289h289v-64z" />
    <glyph glyph-name="uniE602" unicode="&#xe602;" 
d="M527 243zM513 418zM361 418q0 41 20.5 76t55.5 55.5t76 20.5t76 -20.5t55.5 -55.5t20.5 -76t-20.5 -76t-55.5 -55.5t-76 -20.5q-63 0 -107.5 44.5t-44.5 107.5zM266 -51zM512 -164q-94 0 -181 37q-83 35 -147.5 99.5t-99.5 148.5q-37 86 -37 180.5t37 181.5q35 83 99 148
q22 21 45.5 39.5t49.5 33.5t53 26q87 37 181.5 37t180.5 -37q42 -17 79 -42t69 -57q65 -65 100 -148q37 -87 37 -181.5t-37 -180.5q-35 -84 -99.5 -148.5t-148.5 -99.5q-28 -12 -58 -20.5t-60.5 -12.5t-62.5 -4zM512 730q-69 0 -134.5 -21.5t-118 -61.5t-92.5 -92.5
t-61.5 -118t-21.5 -134.5q0 -60 16 -116t45 -104t69 -88q39 -37 85.5 -64t101 -42t111.5 -15q117 0 215.5 57.5t156 156t57.5 215.5q0 87 -34 166t-91.5 136.5t-137 91.5t-166.5 34zM214 -6q59 -57 136 -89t162 -32q99 0 186.5 42.5t147.5 117.5q-44 92 -131.5 147.5
t-192.5 55.5q-110 0 -199.5 -60t-130.5 -158q10 -12 22 -24z" />
    <glyph glyph-name="uniE603" unicode="&#xe603;" 
d="M511 736q-95 -2 -174.5 -35t-142.5 -96q-127 -126 -131 -317q4 -190 130.5 -317t317.5 -131q190 4 316 131q122 122 130 301v31q-4 90 -36.5 165.5t-93.5 135.5q-126 128 -316 132v0zM787 22q-46 21 -70 24q-93 8 -115 30q-21 23 -18 63q1 12 4.5 19.5t10.5 11.5
q15 6 31 72q6 21 11 32q9 15 20 51q7 30 0 34q-9 4 -10 2l4 20q3 14 6 43q8 66 -26 113q-34 49 -127 51q-26 0 -48 -7.5t-35 -16.5t-33 -26q-53 -41 -39 -114q2 -9 4.5 -20t4.5 -18t3.5 -13.5t1 -9t-2.5 -2.5q-2 2 -9 -2q-3 -2 -3.5 -10.5t1.5 -23.5q16 -39 22 -49
q3 -4 5 -9.5t3.5 -11.5t3.5 -13q6 -32 13 -49.5t14 -21t11.5 -11.5t7.5 -21q7 -41 -17 -63q-23 -22 -112 -30q-29 -3 -70 -24q-106 111 -107 266q4 162 113 271t271 113q163 -4 270 -113q109 -109 113 -271q0 -78 -28 -146t-79 -120v0z" />
    <glyph glyph-name="uniE604" unicode="&#xe604;" 
d="M633 677q23 -5 38.5 -25t17.5 -50q0 -9 1 -28.5t1 -41t-1.5 -39t-5.5 -21.5q-6 -7 -11.5 -6.5t-5.5 -5.5q0 -3 -1.5 -21.5t-9.5 -51.5q-4 -17 -11.5 -31t-15.5 -25q-11 -13 -21 -23q-1 -13 -1 -25v-22q0 -11 1 -17q1 -13 6.5 -18t20.5 -9q5 -2 18.5 -6t31.5 -10.5t38 -14
t38.5 -14t33 -12t21.5 -8.5q21 -11 27.5 -22t11.5 -29q2 -9 5.5 -33.5t7.5 -51t7 -50t4 -30.5q1 -13 -5 -22t-26 -14q-18 -4 -51 -9t-77 -9t-97 -6.5t-111 -2.5t-111.5 2t-98 5.5t-79 8t-53.5 10.5q-4 1 -10 4t-12 7.5t-9 11t-2 14.5t5.5 33t11 53.5t11.5 53.5t7 31
q4 13 11.5 26t26.5 28q9 7 33.5 15t51.5 15.5t50.5 12.5t30.5 7q15 3 27 7.5t12 12.5v60q-12 9 -22 20q-9 9 -18 22t-17 27q-14 28 -18 51t-5 27t-7.5 6.5t-10.5 11.5q-8 17 -7.5 36.5t2.5 55.5q3 36 12 68.5t38 60.5q16 13 41.5 22t52 13t50.5 4t37 -3q13 -4 21 -9t13 -9
t8 -7.5t6 -5.5q5 -4 13 -2.5t29 -2.5zM539 116l27 -107l45 121l-43 31zM465 163l-41 -33l46 -121l25 108zM829 563q15 -2 23.5 -14t9.5 -30q0 -5 1 -17t1 -24t-1 -23t-3 -13q-4 -4 -7.5 -3.5t-3.5 -3.5q0 -2 -0.5 -12.5t-5.5 -31.5q-2 -10 -6 -18t-10 -15q-5 -7 -12 -13
q-1 -8 -1 -15v-24q1 -7 4 -10t12 -5q5 -1 20 -6t33 -12t33.5 -12.5t21.5 -8.5q12 -6 16.5 -13t7.5 -18q1 -5 3 -19.5t4 -30.5t4 -29.5t2 -17.5q1 -8 -2.5 -14t-16.5 -8q-10 -2 -26.5 -5t-42.5 -5q-2 12 -6 24q-3 10 -7.5 21t-10.5 20q-11 15 -23.5 24t-24.5 15.5t-24.5 10
t-24.5 7.5q-52 18 -84 25.5t-36 12.5q-2 3 -2.5 7t-0.5 9t1 12q14 4 21.5 5t11.5 2q8 2 15 4.5t7 7.5v36l-2 1l-4 2q-2 1 -4 5q6 13 12 32q6 16 11.5 39.5t9.5 56.5q3 26 4 46.5t1 35.5v32q12 2 26 2t22 -2q18 -5 21.5 -10.5t7.5 -8.5q4 -2 8.5 -1.5t16.5 -1.5zM777 235
l7 -27l19 -6l14 37l-21 18zM724 254l-17 -17l1 -5l31 -9l4 11zM269 586q-16 2 -32 1q-15 -1 -32 -5t-31 -15q-12 -8 -19.5 -19t-11 -23t-4.5 -22t-1 -17q-1 -13 -2 -23.5t1 -19t3 -11.5t4 -5t5.5 -2.5t4.5 -13.5q1 -14 6.5 -26.5t11.5 -21.5q3 -5 7.5 -9.5t9 -9.5t10.5 -10
v-12v-18q-1 -6 -5 -10t-14 -6q-5 -1 -16.5 -4t-25.5 -7l-28 -8q-14 -4 -22 -7q-30 -14 -36 -49q-4 -16 -9 -41l-7 -35q-2 -10 0.5 -21.5t16.5 -14.5q7 -2 18 -3t21 -3q11 -2 24 -3q2 12 6 25q3 11 8.5 22t13.5 22q9 9 20.5 17.5t22.5 17.5q13 9 27 17l-10 26l22 17l24 -27
l12 3q2 0 6 2q2 1 4 1l20 23l17 -14q5 1 9.5 2t9.5 2l10 2q11 2 19 4t9 10q0 4 0.5 6.5t0.5 4.5v3q-10 4 -18 7l-14 4q-7 2 -11 4q-9 3 -10 8.5t-1 14.5v11q0 5 1 10q0 5 1 12q-8 12 -16 27q-7 12 -13.5 28t-11.5 33q-5 24 -7 50.5t-1 48.5q0 25 3 50z" />
    <glyph glyph-name="uniE605" unicode="&#xe605;" horiz-adv-x="1118" 
d="M559 -26l-329 -172l63 365l-266 259l367 53l165 333l164 -333l367 -53l-266 -259l63 -365z" />
    <glyph glyph-name="uniE606" unicode="&#xe606;" 
d="M779 -99q-13 0 -25 7l-245 142l-245 -142q-9 -5 -18.5 -6.5t-19.5 1t-17 8.5q-27 21 -18 53l71 262l-161 150q-12 10 -15 25t2 29q4 10 11 17t16 11t20 4h217l112 248q3 8 10 14.5t16 9.5t19 3q33 0 45 -27l112 -248h217q16 0 28.5 -8.5t18.5 -23.5q12 -31 -13 -54
l-161 -150l71 -262q8 -32 -18 -53q-6 -5 -14 -7.5t-16 -2.5zM509 93l263 -153q2 -1 4 -1.5t3.5 -0.5t3.5 0.5t4 2.5q6 5 4 13l-77 284l178 165q6 6 3 14t-12 8h-241l-122 269q0 2 -2.5 3.5t-4.5 2t-4 0.5q-9 0 -12 -6l-122 -269h-240q-9 0 -12 -8t3 -14l178 -165l-77 -284
q-2 -8 4.5 -13.5t13.5 -0.5z" />
    <glyph glyph-name="uniE607" unicode="&#xe607;" 
d="M788 414l-275 -275l-274 275h549z" />
    <glyph glyph-name="uniE608" unicode="&#xe608;" 
d="M753 -202h-125h-63h-125h-63h-125h-251v32v31v752h251v189h501v-189h251v-752v-31v-32h-251zM252 551h-188v-690h188v690zM440 -139h125v126h-125v-126zM691 613v126h-376v-126v-752h62v126v62h63h125h63v-62v-126h63v752zM942 551h-189v-690h189v690zM879 363h-63v62h63
v-62zM879 175h-63v62h63v-62zM879 -13h-63v62h63v-62zM377 237h251v-62h-251v62zM377 425h251v-62h-251v62zM377 613h251v-62h-251v62zM189 363h-62v62h62v-62zM189 175h-62v62h62v-62zM189 -13h-62v62h62v-62z" />
    <glyph glyph-name="uniE609" unicode="&#xe609;" 
d="M603 253h-182q-127 0 -216.5 -87t-89.5 -210v-18q0 -21 9.5 -36t33 -24t45 -14.5t64.5 -7.5t70.5 -2.5t83.5 -0.5h182q81 0 120.5 1.5t91 8.5t73.5 26t22 49v18q0 81 -41.5 149.5t-112 108t-153.5 39.5zM503 276q49 0 94 18.5t77.5 50t52 75.5t19.5 91q0 98 -71.5 167
t-171.5 69t-171.5 -69t-71.5 -167q0 -63 32.5 -117.5t88.5 -86t122 -31.5zM503 276z" />
    <glyph glyph-name="uniE60A" unicode="&#xe60a;" 
d="M514 718q-113 0 -208.5 -43.5t-151 -117.5t-55.5 -162t55.5 -161t151 -114t208.5 -41t208.5 41t151.5 114t56 161t-56 162t-151.5 117.5t-208.5 43.5zM738 368l-123 77l-159 -220l-118 97l159 189l-87 61l34 31l315 -188zM932 366l-2 -134q-1 -3 -2.5 -9.5t-9 -25.5
t-17 -38t-27.5 -44t-39.5 -46.5t-54.5 -44t-70.5 -37.5t-89 -25t-108.5 -9q-8 -1 -20.5 -0.5t-49 5.5t-71.5 14t-79.5 30t-79.5 50t-66 77.5t-44 108.5l-2 10l-6 132l4 -43q26 -135 149 -210q104 -63 265 -73q8 0 21.5 0.5t55 6.5t79 16.5t85 34t82.5 55t62.5 83.5t34.5 116
z" />
    <glyph glyph-name="uniE60B" unicode="&#xe60b;" 
d="M736 143q-25 -35 -59.5 -60.5t-77 -40t-87.5 -14.5q-114 0 -195 80.5t-82 193.5h33h57l-143 143l-143 -143h76h2h12q1 -103 52 -191t139 -139t192 -51q89 0 168 39.5t132 107.5l-31 31zM925 302h-31v1v1q0 52 -13.5 101.5t-38.5 91.5t-60 77.5t-77 60t-91.5 38
t-101.5 13.5q-91 0 -170 -39.5t-133 -108.5l33 -32l43 -44q39 55 98.5 86.5t128.5 31.5q114 0 195 -81t81 -195v-1v-1h-34h-57l144 -143l143 143h-59zM647 475l-95 -161h75v-36h-87v-49h87v-36h-87v-71h-45v71h-90v36h90v49h-90v36h77l-94 161h51q65 -120 79 -152h1
q5 13 27 53l53 99h48z" />
    <glyph glyph-name="uniE60C" unicode="&#xe60c;" 
d="M511 715q113 0 208.5 -55.5t151.5 -151.5t56 -209t-56 -208.5t-151.5 -151.5t-208.5 -56t-208.5 56t-151.5 151.5t-56 208.5q0 161 108 279q106 116 260 134q24 3 48 3zM511 804q-186 0 -328 -121q-135 -116 -168 -290q-9 -47 -9 -94q0 -103 40 -196.5t107.5 -161
t161 -107.5t196.5 -40q82 0 159 25.5t139.5 72.5t109 109t72 139t25.5 159q0 103 -40 196.5t-107.5 161t-161 107.5t-196.5 40zM665 -16q2 7 5 19t17.5 48t33 70t53 78.5t74.5 80.5l-117 -32q-1 13 -2.5 34.5t-12.5 77t-28.5 98.5t-54 80t-85.5 40q-10 1 -28 0t-66.5 -17
t-90.5 -47t-86.5 -102t-67.5 -169q5 5 12 13.5t30 33.5t45.5 45.5t54 43.5t60 36t59.5 14.5t55.5 -14.5t45 -56.5t31.5 -105.5l-118 28q145 -144 181 -297z" />
    <glyph glyph-name="uniE60D" unicode="&#xe60d;" 
d="M301 -97l542 544l-184 184l-542 -545l-15 -68l115 -130zM70 -142l97 20l-76 85zM820 727q-15 15 -36 15t-36 -15l-53 -53l191 -191l53 53q10 10 13.5 23t0 26t-13.5 23z" />
    <glyph glyph-name="uniE60E" unicode="&#xe60e;" 
d="M703 -170q-37 0 -71.5 9.5t-64 27t-54 42t-41.5 54t-27 64t-10 70.5q0 111 78.5 189t189 78t189 -78t78.5 -189t-78.5 -189t-188.5 -78zM703 298q-55 0 -101 -27t-73 -73t-27 -101q0 -83 59 -141.5t142 -58.5t141.5 58.5t58.5 141.5t-58.5 142t-141.5 59zM792 30h-138
l25 -43q5 -8 -13 -18q-8 -5 -14.5 -5.5t-8.5 2.5q-52 78 -52 87l1 1v1v2q2 8 8 13t14 5h5h5h168q9 0 15.5 -6.5t6.5 -16t-6.5 -16t-15.5 -6.5zM813 137q-1 -5 -4 -9t-7.5 -6.5t-9.5 -2.5h-6h-5h-167q-10 0 -16.5 6.5t-6.5 16t6.5 16t16.5 6.5h138l-26 44q-2 3 2 8t11.5 9.5
t14 5t8.5 -2.5l48 -76l4 -10q0 -1 -0.5 -1.5t-0.5 -1.5v-2zM680 542q10 0 16.5 -6.5t6.5 -15.5t-6.5 -15.5t-16.5 -6.5h-111q-9 0 -15.5 6.5t-6.5 15.5t6.5 15.5t15.5 6.5h111zM235 142h111q10 0 16.5 -6.5t6.5 -16.5q0 -4 -2 -8t-5 -7t-7 -5t-9 -2h-111q-9 0 -15.5 6.5
t-6.5 16t6.5 16t15.5 6.5zM458 387q9 0 15.5 -6.5t6.5 -16.5q0 -3 -1 -6.5t-3 -6.5t-5 -5t-6.5 -3t-6.5 -1h-89v-89q0 -9 -6.5 -15.5t-16 -6.5t-16 6.5t-6.5 15.5v89h-89q-9 0 -15.5 6.5t-6.5 16t6.5 16t15.5 6.5h89v89h-89q-9 0 -15.5 6.5t-6.5 15.5t6.5 15.5t15.5 6.5h22
v45q0 3 1.5 6.5t3.5 6.5t4.5 5t6 3t7.5 1q9 0 15.5 -6.5t6.5 -15.5v-45h89v45q0 3 1 6.5t3 6.5t5 5t6.5 3t6.5 1q9 0 15.5 -6.5t6.5 -15.5v-45h23q6 0 11 -3t8 -8t3 -11t-3 -11t-8 -8t-11 -3h-89v-89h89zM792 654q0 12 -6 22t-16.5 16t-22.5 6h-579q-18 0 -31 -13t-13 -31
v-646q0 -12 6 -22.5t16 -16t22 -5.5h253q18 -37 43 -67h-318q-37 0 -63 26t-26 63v690q0 37 26 63t63 26h623q25 0 45.5 -12t32 -32.5t11.5 -44.5v-309q-15 9 -32 16.5t-34 12.5v258z" />
    <glyph glyph-name="uniE60F" unicode="&#xe60f;" 
d="M753 618q21 -15 40 -32t35 -36q4 -5 7.5 -9t6.5 -9l8 -8l6 -10l6 -8l6 -10t6 -9.5t5.5 -9.5t5.5 -10q12 -22 20.5 -45.5t15.5 -47.5q12 -50 12 -100q0 -22 -2 -43.5t-6.5 -42t-10.5 -40t-15 -38.5q-33 -77 -90 -134t-133 -90q-20 -9 -39.5 -15t-40 -10t-42 -6.5
t-42.5 -2.5q-87 0 -163.5 33.5t-134 90.5t-90.5 134q-16 38 -24.5 79t-8.5 85q0 50 12 97.5t33.5 91t53.5 81t71 67.5q6 4 11 6.5t11 4t11 1.5h12q24 -4 39 -24q8 -10 10.5 -21t1 -23t-7.5 -22t-16 -18q-59 -43 -90.5 -106t-31.5 -135q0 -31 5.5 -60.5t17.5 -56.5
q24 -55 64.5 -96t95.5 -65q19 -8 38 -13.5t39 -8t41 -2.5q62 0 117 24t95.5 65t64.5 96q12 27 18 56.5t6 60.5q0 24 -3.5 47.5t-11 46.5t-19.5 44q-33 66 -94 108q-21 14 -25 39q-1 6 -1 11.5t1 11.5t3.5 11.5t5.5 10.5q15 19 39 24q8 1 16 0.5t15 -3t14 -7.5v0zM512 271
q-25 0 -42.5 17.5t-17.5 41.5v357q0 25 17.5 43t42.5 18t42.5 -18t17.5 -43v-357q0 -24 -17.5 -41.5t-42.5 -17.5v0zM512 271z" />
    <glyph glyph-name="uniE610" unicode="&#xe610;" 
d="M237 134q23 0 44.5 5.5t40 15.5t34.5 25l263 -118q-6 -20 -6 -40q0 -70 51 -119t123 -49t123 49t51 119t-51 119t-123 49q-18 0 -35.5 -3.5t-33 -10t-29.5 -15.5t-25.5 -20.5t-21.5 -25.5l-250 112q6 11 10 23t6.5 25.5t2.5 26.5q0 19 -4.5 37t-12.5 35l252 111
q6 -8 12.5 -15.5t14.5 -14t16 -12t17 -10t19 -8t20 -6t20.5 -4t21.5 -1.5q72 0 123 49.5t51 119.5q0 34 -14 65t-37 53.5t-55.5 36t-67.5 13.5q-47 0 -87 -22.5t-63.5 -61.5t-23.5 -84q0 -5 1 -10v-10q1 -5 2 -9l2 -10q1 -4 2 -9l-260 -114q-51 50 -123 50q-28 0 -54.5 -8.5
t-48 -24.5t-37.5 -36.5t-25 -46t-9 -53.5q0 -45 23.5 -84t63.5 -61.5t87 -22.5z" />
    <glyph glyph-name="uniE611" unicode="&#xe611;" 
d="M511 749q-90 0 -171 -34t-143 -94h22q123 -225 149 -285h2q9 25 49 100l101 185h89l-177 -302h139v-66h-162v-92h162v-67h-162v-134h-84v134h-169v67h169v92h-169v66h144l-146 252q-44 -57 -67.5 -126t-23.5 -144q0 -91 35.5 -173.5t95.5 -142.5t143 -95.5t174 -35.5
t173.5 35.5t142.5 95.5t95.5 142.5t35.5 173.5q0 73 -22.5 141.5t-64 123.5t-96.5 96.5t-123 64t-141 22.5zM834 98h-31q-17 0 -24 8q-7 6 -7 24v73q-6 0 -11.5 -0.5t-10.5 -0.5h-11q-5 0 -9 -1q-2 -38 -16 -60q-19 -31 -68 -48q-5 8 -12 18q47 15 64 41q12 19 13 49
q-16 -1 -27 -2q-7 0 -19 -4l-10 21q13 3 22 11q24 22 44 49h-83v17h113q-8 15 -16 25l17 10q9 -12 19 -28l-13 -7h110v-17h-121q-22 -27 -54 -58q75 2 118 3q-13 16 -27 32l14 10q37 -37 59 -65l-17 -12q-2 2 -4 4.5t-3.5 5t-3.5 4.5t-4 5q-9 -1 -17 -1h-16v-71q0 -11 2 -14
q3 -4 13 -4h23q15 0 17 12q2 10 3 31q4 -2 9.5 -3.5t11.5 -3.5q-1 -6 -1 -11l-2 -10q0 -5 -1 -9q-4 -23 -33 -23z" />
    <glyph glyph-name="uniE612" unicode="&#xe612;" 
d="M512 792q-100 0 -191 -39t-157 -105t-105 -157t-39 -191t39 -191t105 -157t157 -105t191 -39t191 39t157 105t105 157t39 191t-39 191t-105 157t-157 105t-191 39zM693 232q18 0 31 -13t13 -32q0 -7 -2.5 -13.5t-6.5 -12t-9.5 -9.5t-12 -6.5t-13.5 -2.5h-137v-113
q0 -19 -13 -32t-31 -13t-31 13t-13 32v113h-136q-19 0 -32 13t-13 31q0 12 6 22.5t16.5 16.5t22.5 6h136v65h-136q-19 0 -32 13t-13 31t13 31t32 13h98l-119 138q-12 14 -10.5 32.5t15.5 29.5q14 12 32 10.5t30 -14.5l134 -157l134 157q12 13 30 14.5t32 -10.5
q14 -11 15.5 -29.5t-10.5 -32.5l-118 -138h98q18 0 31 -13t13 -31t-13 -31t-31 -13h-137v-65h137z" />
    <glyph glyph-name="uniE613" unicode="&#xe613;" 
d="M908 475h-792q-8 0 -15 -4t-11.5 -10.5t-4.5 -14.5v-263q0 -3 1 -6.5t2.5 -6.5t3.5 -5.5t5 -4.5t6 -3.5t6 -2t7 -0.5h30v-293q0 -12 9 -20.5t22 -8.5h670q8 0 15 4t11.5 10.5t4.5 14.5v293h30q13 0 22 8.5t9 20.5v263q0 5 -2 9.5t-4.5 8t-6.5 6t-8.5 4t-9.5 1.5zM451 -80
q0 -12 -9 -20.5t-21 -8.5h-183q-8 0 -15.5 3.5t-11.5 10.5t-4 15v234q0 12 9 20.5t22 8.5h183q12 0 21 -8.5t9 -20.5v-234zM451 271q0 -8 -4 -15t-11 -11t-15 -4h-244q-8 0 -15 4t-11.5 11t-4.5 15v117q0 12 9 20.5t22 8.5h244q12 0 21 -8.5t9 -20.5v-117zM817 -80
q0 -12 -9 -20.5t-22 -8.5h-183q-8 0 -15 3.5t-11 10.5t-4 15v234q0 8 4 14.5t11 10.5t15 4h183q3 0 5.5 -0.5t4.5 -1.5l6 -2q2 -1 4 -3l4 -4q1 -1 2.5 -3.5t2.5 -4.5t1.5 -5t0.5 -5v-234zM878 271q0 -12 -9 -21t-22 -9h-244q-12 0 -21 9t-9 21v117q0 4 1.5 8.5t4.5 8
t6.5 6.5t8 4.5t9.5 1.5h244q6 0 12 -2.5t10 -6.5t6.5 -9t2.5 -11v-117v0zM377 476h280q92 63 99 123q6 50 -42 86q-16 12 -33 18.5t-33 6.5q-85 0 -130 -155q-11 39 -24 73t-32.5 67.5t-46 53t-56.5 19.5q-37 0 -72 -30q-32 -27 -42 -55.5t-6 -53.5q13 -78 138 -153z
M648 640q5 0 11.5 -3t13.5 -9q16 -11 15 -21t-10.5 -22t-24.5 -25t-34.5 -26.5t-41.5 -25.5q13 56 32.5 94t38.5 38zM330 684q3 2 6.5 4.5t7.5 4.5t8 3.5t7 1.5q18 0 37.5 -28.5t34.5 -69.5t27 -90q-59 31 -102.5 66t-48.5 64q0 4 -0.5 9t5.5 14.5t18 20.5zM330 684z" />
    <glyph glyph-name="uniE614" unicode="&#xe614;" 
d="M514.5 660q-117.5 0 -200.5 -82t-83 -198q0 -43 31 -108t68 -119.5t86 -115.5t68 -82.5t31 -33.5q11 12 30 33.5t68 82.5t86 115.5t68 119.5t31 108q0 116 -83 198t-200.5 82zM514.5 241q-56.5 0 -96 39.5t-39.5 96t39.5 96t96 39.5t96 -39.5t39.5 -96t-39.5 -96
t-96 -39.5z" />
    <glyph glyph-name="uniE615" unicode="&#xe615;" 
d="M865 426l-353 261l-353 -261l353 -261zM839 338l-327 -242l-327 242l-26 -19v0l353 -261l353 261zM839 230l-327 -241l-327 241l-26 -19v0l353 -261l353 261z" />
    <glyph glyph-name="uniE616" unicode="&#xe616;" 
d="M512 812q-138 0 -256 -69t-187 -187t-69 -256t69 -256t187 -187t256 -69t256 69t187 187t69 256t-69 256t-187 187t-256 69zM499 31q-12 -12 -30 -16.5t-35.5 0t-30.5 16.5l-224 218q-12 12 -16.5 30t0 35.5t17 30t30 17t35.5 0t30 -16.5l173 -167l333 327q19 19 48 19
t48 -19t19 -48t-19 -48z" />
    <glyph glyph-name="uniE617" unicode="&#xe617;" 
d="M511 745q-61 0 -118.5 -16t-106 -44.5t-89.5 -69.5t-69.5 -89.5t-44.5 -106t-16 -118.5q0 -90 35 -172t94.5 -141.5t141.5 -95t172.5 -35.5t172.5 35.5t141.5 95t95 141.5t35.5 172q0 73 -22.5 140.5t-63.5 122t-95.5 96t-122.5 63.5t-140 22zM634 115l-169 142l1 1v354
h89v-316l135 -113zM634 115z" />
    <glyph glyph-name="uniE618" unicode="&#xe618;" 
d="M323 596q-53 -30 -97.5 -100.5t-67 -144.5t-21.5 -130q1 -78 25.5 -143t62.5 -107.5t87.5 -71.5t100.5 -40.5t100 -9.5q86 4 165 44t131 112q39 54 61.5 129t17.5 157q-7 108 -67.5 212.5t-186.5 195.5q-24 19 -47 31t-52 17.5t-59 1.5q-71 -11 -119 -78
q-60 -85 -29 -187q23 -73 92 -137q12 -11 44.5 -36t53 -42.5t39 -49.5t20.5 -66q6 -61 -37.5 -114t-106.5 -56q-38 -2 -71 11.5t-55 38t-34 54.5t-9 64t22 64q10 16 35 46t48 56t40 43z" />
    <glyph glyph-name="uniE619" unicode="&#xe619;" 
d="M777 54q-31 0 -55.5 -19.5t-31.5 -49.5h-280q-7 33 -35 54l35 112h443l87 385l-699 94l-56 38q3 9 3 12q0 14 -7.5 26.5t-19.5 20t-27 7.5q-22 0 -38 -16t-16 -38q0 -15 7.5 -27.5t19.5 -19.5t27 -7q1 0 11 2l65 -44l110 -433h32l-29 -93h-2l-1 1q-19 0 -36 -7.5
t-29.5 -20t-19.5 -29.5t-7 -36t7 -36t19.5 -29.5t29.5 -19.5t36 -7q27 0 50 15t34 40h290q11 -25 33.5 -40t49.5 -15q37 0 63.5 26t26.5 64q0 10 -2.5 20.5t-7 19t-10.5 16.5t-14 14t-16.5 10.5t-18.5 7t-21 2.5zM777 54z" />
    <glyph glyph-name="uniE61A" unicode="&#xe61a;" 
d="M860 531h-658q-1 0 -3 0.5t-7 2t-9.5 3.5t-10.5 5.5t-10 7t-7 9t-3 11.5l718 69v59q0 2 -1.5 5.5t-7 13t-14.5 14t-26 9t-41 -1.5l-638 -109l-24 -7q-55 -27 -55 -101v-562q0 -41 29 -69.5t70 -28.5h698q41 0 70.5 28.5t29.5 69.5v473q0 16 -5 31t-14.5 27.5t-21.5 21.5
t-27.5 14t-31.5 5zM486 162q-4 -1 -13 -1h-30q-12 0 -18 -6t-6 -16v-52q0 -9 -8 -18t-20 -9h-21q-8 0 -14.5 6t-6.5 22q0 7 1 9v4v5v5q1 7 1 24q0 7 -1.5 12t-3.5 8q-5 6 -17 6h-29q-13 0 -16 5t5 15q4 6 9 12t10 13q10 14 20 30q8 10 21 29q10 15 20 26q1 2 3.5 3.5t5.5 3
t6.5 2t6.5 0.5q6 1 11.5 -1t8.5 -5q7 -11 15 -25l18 -28q10 -14 18 -27q9 -14 17 -26l8 -13q2 -3 2.5 -5t0.5 -3.5t-1 -2.5t-3 -2zM815 103q-29 0 -49.5 20.5t-20.5 48.5q0 8 1.5 14.5t4.5 12.5t6.5 12t8.5 10.5t10.5 8t11.5 6.5t13 4.5t14 1.5q14 0 27 -5.5t22.5 -15
t15 -22t5.5 -27.5q0 -18 -9.5 -34t-25.5 -25.5t-35 -9.5z" />
    <glyph glyph-name="uniE61B" unicode="&#xe61b;" 
d="M920 670q-63 0 -126.5 14.5t-106 32t-81 40t-52 32.5t-18.5 15q-5 4 -11.5 6t-13 1.5t-12 -3.5t-10.5 -8q-28 -36 -78.5 -62.5t-108 -39.5t-107 -19.5t-91.5 -6.5q-4 0 -8 -1t-8 -3t-7 -5q-9 -9 -9 -23v-370q0 -47 26.5 -111t72.5 -128t101.5 -119t120 -89.5t122.5 -34.5
q50 0 104.5 25t101.5 65.5t90.5 92t74 103.5t48.5 101t18 83v380q0 14 -9.5 23t-22.5 9zM888 258q0 -33 -22.5 -84.5t-61.5 -106.5t-86 -103.5t-101.5 -80t-101.5 -31.5q-46 0 -100.5 31t-102 80t-88 104.5t-64.5 110t-24 92.5v339q30 1 60.5 4t77 12t87.5 22t84 36t74 53
q25 -18 55.5 -35.5t78.5 -39.5t109.5 -36.5t125.5 -17.5v-349zM387 524q-9 10 -22.5 10t-22.5 -9q-6 -6 -8.5 -14.5t-0.5 -16.5t8 -15l105 -109h-110q-13 0 -22.5 -9.5t-9.5 -22.5t9.5 -22.5t22.5 -9.5h144v-60h-144q-13 0 -22.5 -9.5t-9.5 -23t9.5 -22.5t22.5 -9h144v-127
q0 -13 9.5 -22.5t22.5 -9.5q9 0 16.5 4t11.5 11.5t4 16.5v127h144q13 0 22.5 9t9.5 22.5t-9.5 23t-22.5 9.5h-144v60h144q13 0 22.5 9.5t9.5 22.5t-9.5 22.5t-22.5 9.5h-110l105 109q6 7 8 15t0 16.5t-9 14.5q-9 9 -22.5 9t-22.5 -10l-125 -129z" />
    <glyph glyph-name="uniE61C" unicode="&#xe61c;" 
d="M512 -147q-210 0 -306.5 74.5t-96.5 230.5q0 127 87.5 244.5t211.5 159.5h208q124 -42 211.5 -159.5t87.5 -244.5q0 -204 -168 -270q-91 -35 -235 -35zM624 190q7 0 13 3t10.5 7.5t7.5 10.5t3 13q0 9 -4.5 17t-12.5 12.5t-17 4.5h-69l-1 1q0 1 1 1l80 82q9 12 7 20
t-13 20q-11 10 -24.5 11.5t-22.5 -7.5l-69 -73l-75 74q-4 4 -9 5t-10.5 0t-11.5 -4t-11 -8q-10 -10 -12 -21.5t5 -18.5l77 -76q-2 -3 -3 -6h-62v0q-15 0 -25 -10t-10 -24t10 -24t25 -10v0h68v-33h-68v0q-10 0 -17.5 -5t-12.5 -12.5t-5 -16.5q0 -7 3 -13.5t7.5 -11t11 -7
t13.5 -2.5v0h68v-34h1q0 -2 -0.5 -4t-0.5 -4q0 -18 12.5 -30t30.5 -12q7 0 13.5 2t12 6t9.5 9t6 11.5t2 13.5q0 4 -1 8v34h70q7 0 13 2.5t10.5 7t7.5 11t3 13.5q0 9 -4.5 16.5t-12.5 12t-17 5.5h-70v33h70zM675 697l-7 -9l-1 -1l-61 -75h-205l-61 75v1q-1 0 -1 1l-7 8l1 2v1
l-1 5q0 18 16 24l1 1q85 17 154 17q33 0 71.5 -4t60.5 -8l23 -5v-1q17 -7 17 -24q0 -1 -1 -5v-1zM675 697z" />
    <glyph glyph-name="uniE61D" unicode="&#xe61d;" 
d="M512 -210q-44 0 -101 25t-113.5 69.5t-104 99t-77.5 121t-30 128.5v429h43q8 0 28.5 2t70.5 12t94 28t86.5 41t57 32.5t21.5 14.5l25 18l25 -18q2 -2 8 -6t22 -14t34 -20t45.5 -23.5t55.5 -24.5t58 -19.5t52 -12.5t43 -6.5t29 -3t11 -0.5h42l1 -429q0 -52 -21.5 -107.5
t-56 -103.5t-79.5 -91.5t-92 -74t-93.5 -48.5t-83.5 -18zM172 580v-347q0 -59 39.5 -125.5t94 -116t112 -82.5t94.5 -33t94.5 33t112 82.5t94 116t39.5 125.5v347q-97 10 -182 44q-86 35 -158 81q-72 -45 -158 -81q-85 -34 -182 -44zM489 72l-181 154l56 65l116 -99l220 254
l65 -57zM489 72z" />
    <glyph glyph-name="uniE61E" unicode="&#xe61e;" 
d="M721 613q-2 -2 -4.5 -5.5t-4 -6t-3 -5.5t-2 -6t-1.5 -5t-1 -4v-3v-3v-1q0 -28 -9 -37q-4 -3 -12.5 0t-17.5 10l-127 127q-22 22 -27 22q-2 1 -12 -6t-18 -16l-127 -127q-9 -8 -18 -11t-12 1q-4 4 -7 16t-2 23q0 1 0.5 2.5t-0.5 6t-2.5 9t-5.5 10.5t-9 11q-29 29 -70 13
q-16 -7 -28 -18q-21 -22 -22 -50.5t19 -49.5q7 -7 17 -11.5t16 -4.5l6 -1q27 0 39 -8q2 -2 2.5 -5.5t-1 -7.5t-4.5 -8.5t-7 -8.5l-127 -127q-22 -22 -22 -27q-1 -3 6 -12.5t16 -18.5l127 -126q8 -9 11 -18t-1 -13t-16 -6.5t-23 -1.5h-6q-4 0 -14.5 -4.5t-18.5 -12.5
q-20 -20 -19 -49t22.5 -50.5t50.5 -22.5t49 19q3 3 6 7t4.5 8t3 7.5t2 6.5t1 5t0.5 4v1q0 27 8 39q4 5 13 2t18 -12l126 -127q22 -22 27 -22q3 -1 12.5 6t18.5 16l118 118q22 22 22 27q1 2 -3 9t-9 11q-7 7 -17 14h-3q-34 -8 -61 17q-20 20 -19 49t22.5 50.5t50.5 22.5
t49 -19q25 -25 17 -61v-3q1 -3 5.5 -8t8 -9t8 -7.5t7.5 -4.5q2 -1 12 6t18 16l118 118q22 22 22 27q0 1 -2 4.5t-5 8t-7 9.5t-8 9l-126 126q-9 9 -11.5 17.5t0.5 13.5q9 8 38 8q20 -2 38 17q21 20 20 49t-23 51q-20 20 -49.5 20.5t-50.5 -19.5z" />
    <glyph glyph-name="uniE61F" unicode="&#xe61f;" 
d="M512 747q-91 0 -173.5 -35.5t-142.5 -95.5t-95.5 -142.5t-35.5 -173.5q0 -73 22.5 -141.5t64 -123.5t96.5 -96t123 -63.5t141 -22.5q91 0 174 35t143 95t95 143t35 174t-35 173.5t-95 142.5t-143 95.5t-174 35.5zM747 144q11 -11 15 -25.5t0 -29t-15 -24.5
q-16 -17 -39 -17t-40 17l-156 156l-156 -156q-16 -17 -39 -17t-39.5 16.5t-16.5 39.5t16 40l156 156l-156 156q-16 16 -16 39t16.5 39.5t39.5 16.5t39 -16l156 -156l156 156q17 16 40 16t39.5 -16.5t16.5 -39.5t-17 -39l-156 -156z" />
    <glyph glyph-name="uniE620" unicode="&#xe620;" 
d="M959 -19l-319 319l319 320l-128 128l-319 -320l-321 320l-127 -128l320 -320l-320 -320l128 -128l320 320l319 -319z" />
    <glyph glyph-name="uniE621" unicode="&#xe621;" 
d="M509 -129q-21 0 -39 12.5t-46 40.5l-336 341q-4 4 -17.5 21t-18.5 23t-15.5 21.5t-15 26.5t-10.5 27.5t-8.5 33.5t-2.5 37q0 113 77.5 191t191.5 78q85 0 158 -50q28 -19 8 -43q-3 -3 -7.5 -5t-9.5 -2.5t-10.5 0.5t-10.5 3t-10 6q-26 18 -56 27.5t-62 9.5
q-95 0 -156.5 -64t-61.5 -152q0 -45 14 -74.5t49 -73.5l341 -355q24 -24 54 -24q20 -1 44 24q31 29 79 74t144 140t130 137q67 84 67 159q0 85 -67 151t-152 66q-35 0 -77.5 -14t-73.5 -43l-19 -19l-24 -24l-26 -26l-25 -25q-12 -12 -21.5 -22t-15.5 -15l-5 -6
q-33 -32 -51 -19q-8 5 -9.5 13.5t1.5 17t10 15.5q106 112 145 145q85 73 186 73q114 0 194.5 -80.5t80.5 -193.5q0 -21 -6.5 -45.5t-16 -46t-21.5 -41.5t-21.5 -33.5t-16.5 -21.5q-70 -76 -178.5 -184t-173.5 -163q-6 -5 -15 -13t-14 -12t-12 -9.5t-12.5 -8t-12.5 -4.5
t-15 -2z" />
    <glyph glyph-name="uniE622" unicode="&#xe622;" 
d="M719 473q14 0 26.5 5.5t22.5 14.5q4 5 8 10.5t6.5 12t4 13t1.5 13.5q0 28 -20 48q-20 19 -49 19t-48 -19q-10 -10 -15 -23t-5 -25.5t5 -25.5t14.5 -22.5t22 -15t26.5 -5.5zM693 568l6 4q3 2 6 3.5t6.5 2t7.5 0.5q15 0 26 -10.5t11 -25.5q0 -8 -2.5 -14.5t-8.5 -12.5
q-11 -10 -26 -10t-26 10.5t-11 26t11 26.5zM879 700.5q-2 2.5 -5.5 4t-6.5 0.5l-354 -18q-6 0 -10 -4l-411 -410q-3 -2 -4 -4.5t-1 -6t1 -6.5t4 -5l336 -334q4 -5 11 -5q2 0 4 0.5t3.5 1.5t3.5 3l411 409q1 1 2 3t1.5 3.5t1.5 3.5l18 353q0 3 -1.5 6t-3.5 5.5zM834 344
l-395 -394l-314 312l396 394l330 17zM353 140q5 -5 11.5 -5t10.5 5l187 186q11 11 0 22q-11 10 -22 0l-187 -186q-11 -11 0 -22zM488 423q-5 4 -11.5 4t-11.5 -4l-187 -187q-11 -11 0 -22q5 -4 11.5 -4t11.5 4l187 186q4 5 4 11.5t-4 11.5z" />
    <glyph glyph-name="uniE623" unicode="&#xe623;" 
d="M916 748h-806q-20 0 -36 -9.5t-25.5 -26t-9.5 -35.5v-582q0 -30 20.5 -50.5t50.5 -20.5h332v-128h-108q-11 0 -18.5 -7.5t-7.5 -18t7.5 -18t18.5 -7.5h358q7 0 13 3.5t9.5 9.5t3.5 13t-3.5 12.5t-9.5 9t-13 3.5h-109v128h333q29 0 49.5 20.5t20.5 50.5v582q0 29 -20.5 50
t-49.5 21zM110 696h806q5 0 9.5 -2.5t7 -7t2.5 -9.5v-467h-845v467q0 8 6 13.5t14 5.5zM532 -104h-38v128h38v-128zM916 75h-806q-8 0 -14 6t-6 14v64h845v-64q0 -17 -16 -19q-2 -1 -3 -1z" />
    <glyph glyph-name="uniE624" unicode="&#xe624;" 
d="M853 562q-4 11 -15 15.5t-22 0.5t-15.5 -15t-0.5 -22q26 -66 26 -127q0 -79 -92 -237q-33 -55 -74 -116q-53 -78 -117 -160q-5 -7 -10.5 -13.5t-10.5 -13t-10 -12.5l-4 6l-6 6q-2 3 -5 6.5t-5 7.5l-6 6q-2 4 -5 7q-31 40 -60.5 80t-56.5 80q-42 61 -74 116
q-92 158 -92 237q0 85 42 157.5t114.5 115t157.5 42.5q89 0 168 -50q10 -6 21.5 -3.5t17.5 12.5t3.5 21.5t-12.5 17.5q-93 59 -198 59q-75 0 -144 -29.5t-119 -79.5t-79.5 -118.5t-29.5 -144.5q0 -95 101 -266q33 -57 76 -119q53 -79 119 -163q21 -28 39 -49q8 -10 15 -19
q9 -10 22 -10t22 10q8 10 15 19q18 22 39 49q65 84 119 163q43 63 76 119q101 171 101 266q0 72 -31 148v0zM340 403q0 -44 22 -82t59.5 -59.5t82 -21.5t82 21.5t59 59.5t21.5 82q0 19 -4 37t-12 34.5t-19.5 30.5t-25.5 25t-30 19t-34.5 12.5t-37.5 4.5q-22 0 -43 -6
t-39 -16.5t-33 -25.5t-25.5 -33t-16.5 -39t-6 -43zM609 403q0 -22 -8.5 -41.5t-22.5 -33.5t-33.5 -22.5t-41 -8.5t-41 8.5t-34 22.5t-22.5 33.5t-8 41.5q0 44 31 75t74 31q22 0 41.5 -8.5t33.5 -22.5t22.5 -34t8.5 -41zM609 403z" />
    <glyph glyph-name="uniE625" unicode="&#xe625;" 
d="M832 -212h-640q-44 0 -75.5 31.5t-31.5 75.5v810q0 44 31.5 75.5t75.5 31.5h640q44 0 75.5 -31.5t31.5 -75.5v-810q0 -44 -31.5 -75.5t-75.5 -31.5zM192 769q-26 0 -45 -18.5t-19 -45.5v-810q0 -27 19 -45.5t45 -18.5h640q26 0 45 18.5t19 45.5v810q0 18 -8.5 32.5
t-23.5 23t-32 8.5h-640zM516 -63q-12 0 -22 -5.5t-15.5 -15.5t-5.5 -21.5t5.5 -21.5t15.5 -15.5t22 -5.5q7 0 13.5 2t11.5 6t9 9.5t6 12t2 13.5t-2 13.5t-6 11.5t-9 9t-11.5 6t-13.5 2zM832 -41h-640q-4 0 -8 1.5t-7 4.5t-4.5 7t-1.5 8v683q0 5 2.5 10t7.5 8t11 3h640
q6 0 11 -3t7.5 -8t2.5 -10v-683q0 -9 -6 -15t-15 -6zM213 1h598v640h-598v-640zM516 748q-5 0 -9 -1.5t-6.5 -4.5t-4.5 -7t-2 -8q0 -6 3 -11t8 -8t11 -3q8 0 14.5 6.5t6.5 15.5q0 4 -1.5 8t-4.5 7t-7 4.5t-8 1.5z" />
    <glyph glyph-name="uniE626" unicode="&#xe626;" 
d="M632 658q-16 0 -27 -11t-11 -27t11 -27t27 -11t27.5 11t11.5 27t-11.5 27t-27.5 11zM391 658q-16 0 -27.5 -11t-11.5 -27t11.5 -27t27.5 -11t27 11t11 27t-11 27t-27 11zM792 496q-4 54 -27 103q-12 25 -28 46t-36 37t-45 28l41 49q2 3 1 7t-5 7t-8 3t-6 -2l-45 -53
q-54 20 -122 20h-3q-33 0 -63.5 -5t-56.5 -14l-44 51q0 1 -1 1q-1 1 -2 1.5t-3 0.5h-3q-1 0 -2.5 -1t-2.5 -2q-8 -6 -5 -13h1l40 -49q-73 -35 -109 -112q-9 -20 -15 -42.5t-8 -35.5t-3 -25v-6h560v6zM290 541q25 93 104 127l25 11q20 6 43 9t48 3h2q51 0 93 -13l24 -11
q44 -19 68.5 -53t35.5 -73h-443zM884.5 502q-26.5 0 -45.5 -19t-19 -46v-235q0 -27 19 -46t45.5 -19t45.5 19t19 46v235q0 27 -19 46t-45.5 19zM871 437q0 4 2 7.5t5 5t7 1.5q6 0 10 -4t4 -10v-235q0 -6 -4 -10t-10 -4t-10 4t-4 10v235zM139.5 502q-26.5 0 -45.5 -19
t-19 -46v-235q0 -27 19 -46t45.5 -19t45.5 19t19 46v235q0 27 -19 46t-45.5 19zM125 437q2 13 14 14q6 0 10 -4t4 -10v-235q0 -2 -0.5 -4.5t-2.5 -3.5l-2 -4q-2 -1 -4.5 -1.5t-4.5 -0.5q-6 0 -10 4t-4 10v235zM232 50q0 -16 10.5 -29.5t25.5 -13.5h62v-119q0 -18 8.5 -32.5
t23.5 -23t32 -8.5q27 0 46 18.5t19 45.5v119h109v-119q0 -30 25 -50q16 -14 40 -14h1q10 0 20 3t17.5 9t13.5 14t9 17.5t3 20.5v119h64q10 0 17.5 6.5t11 16t3.5 20.5v413h-561v-413zM646 58v-170q0 -6 -3.5 -10t-8.5 -4h-1q-4 0 -7 2l-1 1l-1 1q-6 5 -6 10v170h-210v-170
q0 -6 -4 -10t-10 -4t-10 4t-4 10v170h-98v354h460v-354h-96z" />
    <glyph glyph-name="uniE627" unicode="&#xe627;" 
d="M613 215q-12 11 -36 33.5t-36 33.5q-1 1 -2 1.5t-2 1.5v38q0 34 1 100t1 96q0 19 -15 27t-30.5 0t-15.5 -27v-214q0 -4 -0.5 -9t-0.5 -9v-9q0 -5 1 -9t2.5 -8t3.5 -8t6 -7q9 -9 20 -19t20 -18.5t20 -18.5t20 -19q13 -13 30 -7t21 21t-8 30zM904 487q30 54 20 113.5
t-56 101.5q-45 42 -107 42t-109 -35q-51 16 -102.5 20t-102.5 -3.5t-100 -26.5q-53 35 -113.5 31t-108.5 -48q-31 -29 -42.5 -68.5t-4 -79t29.5 -74.5q-27 -71 -29.5 -145.5t17.5 -141t60.5 -125.5t95 -101t125.5 -66t149 -23q71 1 138 27t121.5 70.5t94.5 103.5
q62 94 67.5 211.5t-43.5 216.5zM863 555q-29 38 -64.5 69t-77.5 54q57 19 103.5 -22t38.5 -101zM281 665q-85 -54 -139 -139q-13 40 5 78t56 56t78 5zM526 -81q-67 -3 -129.5 17.5t-110.5 58.5t-83 91t-51.5 112t-13 124.5t30.5 126.5q61 128 189 189q140 61 291 7
q122 -49 191 -166q0 -1 1 -3t2 -3q24 -45 34.5 -93.5t8.5 -94.5t-15 -91t-35.5 -84.5t-55 -73.5t-71 -59t-85.5 -40t-98 -18z" />
    <glyph glyph-name="uniE628" unicode="&#xe628;" 
d="M395 -51q-56 0 -107 56q-82 90 -112 207q-10 42 -12 86q-1 27 2 50.5t9 44.5t16 39q52 96 156 118q20 4 33 3q16 0 33.5 -3t31 -7.5t30.5 -10.5q26 -10 52 -9.5t51 10.5q24 10 46.5 15t44.5 5h1q72 0 133 -50q7 -5 13 -11t12 -13q11 -11 9 -22q-1 -6 -4 -10.5t-5.5 -6
t-5.5 -3.5q-60 -35 -68 -99q-6 -48 17 -88.5t67 -61.5l-8 -17l9 17q5 -2 8 -4t6.5 -5.5t4.5 -7.5q3 -4 2 -9.5t-2 -8.5t-4 -8q-44 -94 -107 -155q-43 -41 -93 -41q-28 1 -55 14q-40 20 -86 17q-27 -2 -51 -14q-18 -9 -35 -13t-32 -4zM375 514l-20 -2q-87 -19 -130 -98
q-24 -46 -22 -114q1 -41 11 -79q13 -53 39 -100.5t64 -88.5q31 -35 61 -42t67 11q30 15 65 18q57 4 106 -21q19 -9 39 -10q34 0 66 31q28 27 51.5 60.5t44.5 75.5q-54 27 -81.5 78t-19.5 110q9 75 74 120q-2 1 -3.5 3t-3.5 3.5t-4 3.5q-10 8 -21 14.5t-21.5 11.5t-21.5 8.5
t-22.5 5t-22.5 1.5q-37 0 -77 -17q-32 -13 -65 -13.5t-67 11.5q-49 19 -83 19h-3zM508 541q-3 0 -6 0.5t-5.5 1.5t-5.5 4q-11 9 -10 41q2 52 37 100q49 65 128 79q5 2 10 0.5t7.5 -2.5t4.5 -3q10 -9 10 -37q0 -31 -11.5 -61t-31 -54t-46.5 -41.5t-56 -23.5l-7 -2l-6 -1
q-2 -1 -6 -1h-6zM640 726q-55 -14 -91 -61q-28 -38 -29 -79q0 -1 -1 -4l6 1q31 6 57 27.5t41.5 52t16.5 63.5z" />
    <glyph glyph-name="uniE629" unicode="&#xe629;" 
d="M113 251q-26 0 -47.5 12.5t-34 33.5t-12.5 46q0 38 27.5 65t66.5 27q25 0 47 -12.5t34.5 -33.5t12.5 -46q0 -19 -7.5 -36t-20 -29t-30 -19.5t-36.5 -7.5zM515 251q-15 0 -29.5 5t-26 13.5t-20.5 19.5t-13.5 25t-4.5 29q0 38 27.5 65t66.5 27t66.5 -27t27.5 -65
q0 -15 -5 -29t-13.5 -25t-20 -19.5t-26 -13.5t-29.5 -5zM917 251q-39 0 -66.5 27t-27.5 65t27.5 65t66.5 27t66.5 -27t27.5 -65t-27.5 -65t-66.5 -27z" />
    <glyph glyph-name="uniE62A" unicode="&#xe62a;" 
d="M511 -148q-73 0 -141 22.5t-123.5 64.5t-97 97t-64 123.5t-22.5 141.5q0 91 35.5 174t95.5 143t143 95.5t174.5 35.5t174.5 -35.5t143 -95.5t95.5 -143t35.5 -174q0 -73 -22.5 -141.5t-64 -123.5t-97 -97t-124 -64.5t-141.5 -22.5zM511 703q-109 0 -201.5 -54
t-146.5 -146.5t-54 -201.5t54 -202t146.5 -147t202 -54t202 54t146.5 147t54 202q0 41 -8.5 81t-23.5 75.5t-37 68t-49 59.5t-59.5 49t-68.5 37.5t-75.5 23.5t-81.5 8zM511 219q-49 0 -90.5 24t-65.5 65.5t-24 90.5q0 75 53 128t127.5 53t127.5 -53t53 -128q0 -49 -24 -90.5
t-66 -65.5t-91 -24zM511.5 534q-55.5 0 -95 -39.5t-39.5 -95.5q0 -36 18 -67t49 -49t67.5 -18t67.5 18t49 49t18 67q0 56 -39.5 95.5t-95 39.5zM737 46q-17 0 -22 16q-21 67 -77.5 108t-126.5 41q-65 0 -120 -38t-79 -99q-2 -6 -7 -10t-10.5 -5t-12.5 2q-9 3 -12.5 11.5
t-0.5 17.5q29 75 95.5 121t146.5 46q86 0 154 -50t94 -131q2 -6 0.5 -12t-5.5 -10.5t-10 -6.5q-4 -1 -7 -1z" />
    <glyph glyph-name="uniE62B" unicode="&#xe62b;" 
d="M511 666q69 0 121.5 -45t62.5 -112q22 6 45 6q62 0 104 -44q44 -42 44 -104q0 -29 -10.5 -55t-29.5 -47l35 -35q12 -12 21 -25t15 -28q12 -30 12 -62v-44q0 -18 -11 -33q-12 -17 -31 -19h-3h-34v-13q0 -11 -8 -18.5t-19 -7.5h-2h-312h-312h-1q-11 0 -19 7.5t-8 18.5v13
h-34h-3q-20 2 -32 19q-10 14 -10 33v44q0 35 12 62q4 9 9 18t9.5 15t12.5 15t12 13l15 14l12 13q-40 44 -40 102q0 61 44 104q44 44 105 44q23 0 44 -6q10 67 63 112t121 45zM511 34h84v123q0 7 5 12t11 5q7 0 12 -5t5 -12v-72h70l2 7v58q0 16 -3 30.5t-9 27.5t-12 23
t-17 22t-18.5 19.5t-21.5 21t-22 20.5q-9 -5 -19.5 -9t-21 -6.5t-22 -4t-23.5 -1.5q-23 0 -44.5 5.5t-41.5 15.5q-7 -7 -24.5 -23.5t-25 -24.5t-20 -23.5t-18 -27.5t-10 -29.5t-4.5 -35.5v-58q0 -2 1 -5v-2h71v72q0 5 2 8.5t5.5 6t8 2.5t8.5 -2.5t6 -6t2 -8.5v-123h84z
M511 348q36 0 66 17.5t48 48t18 66.5q0 54 -38.5 93t-93.5 39q-27 0 -51.5 -10.5t-42 -28t-28 -42t-10.5 -51.5q0 -55 39 -93.5t93 -38.5zM226 34h79q-14 4 -25 19q-5 8 -8.5 18t-3.5 21v58q0 12 1.5 23.5t4 22.5t6.5 22q-35 2 -61 15q-4 -5 -17.5 -17t-20 -19t-15 -18
t-12.5 -22q-3 -6 -4.5 -13t-2.5 -14t-1 -15v-42h47v49q0 4 2.5 7.5t6 6t7.5 2.5q7 0 12 -5t5 -11v-88zM327 450q-3 2 -7 3.5t-8 3.5q-7 2 -14 3t-15 1q-40 0 -66 -28q-28 -27 -28 -66q0 -13 3.5 -25.5t9.5 -22.5t15 -19q26 -27 66 -27q9 0 16 1t14 3q9 11 20 22.5t26 26
t22 21.5q-44 44 -54 103zM797 34v88q0 3 1 6t3 5t5 3.5t7 1.5q7 0 11.5 -5t4.5 -11v-49h48v42q0 22 -8 42q-8 18 -24 35l-41 41q-26 -13 -61 -15q11 -32 11 -68v-58q0 -21 -12 -39q-10 -15 -24 -19h79v0zM695 450q-10 -61 -53 -103l17 -17l17 -18q8 -7 17 -16.5t16 -18.5
q1 0 3.5 -0.5t5 -1.5t3.5 -1q5 0 9.5 -0.5t9.5 -0.5q39 0 66 27q28 27 28 67q0 19 -7.5 36t-20.5 30q-26 28 -66 28q-16 0 -29 -4q-4 -1 -6.5 -2.5t-9.5 -4.5z" />
    <glyph glyph-name="uniE62C" unicode="&#xe62c;" 
d="M507 474v1q12 0 21 8.5t9 21t-9 21.5t-21 9q-49 0 -93.5 -19t-77 -51.5t-51.5 -77t-19 -93.5q0 -65 32.5 -120.5t88 -88t120.5 -32.5q99 0 170 70.5t71 170.5q0 4 -0.5 8.5t-0.5 8.5t-0.5 8.5t-1.5 8.5h-1q-1 6 -5 11t-9.5 8t-12.5 3q-11 0 -19 -7.5t-9 -19.5v-29
q0 -84 -66 -139q-52 -41 -116 -41q-25 0 -48 6.5t-43 18t-36.5 28t-28 36.5t-18 43.5t-6.5 47.5q0 75 52.5 127.5t127.5 52.5zM591 565l18 -119v-1l-100 -100h-1h-1q-21 0 -36.5 -15t-15.5 -36q0 -1 1 -1v-1l2 -10q3 -14 13 -24t24 -13l10 -2h1h1q21 0 36 15t15 36v1v1
l100 101l124 -19l3 3l162 162l-166 24v1l-25 166l-13 -13l-153 -152zM647 554l67 63l1 -3l17 -97h12l91 -12l-3 -3l-69 -64h-1l-100 12l-1 1l-14 102v1zM920 396q-8 16 -25 16q-5 0 -9.5 -1.5t-8 -4.5t-6 -6.5t-4 -8t-1.5 -8.5q0 -7 4 -14q6 -28 6 -75q0 -75 -29 -143.5
t-78.5 -118t-118 -79t-143.5 -29.5q-100 0 -185.5 49.5t-135 135t-49.5 185.5q0 75 29.5 143.5t79 118t118 79t143.5 29.5q42 0 82 -10v1q1 0 2.5 -0.5t2.5 -0.5q12 0 21 9t9 21q0 20 -19 28q-43 12 -98 12q-178 0 -304 -126t-126 -304q0 -117 57.5 -216t156.5 -156.5
t215.5 -57.5t216 57.5t157 156.5t57.5 216q0 12 -0.5 22.5t-1.5 20t-3 19t-4.5 19t-6.5 22.5zM920 396z" />
    <glyph glyph-name="uniE62D" unicode="&#xe62d;" 
d="M1023 299q0 51 -10 100.5t-29 95t-47 87.5t-64 78q-16 16 -33 30.5t-35.5 27.5t-37.5 24t-39 20t-41 17t-42.5 13.5t-43 9.5t-44 6t-45.5 2q-103 0 -196 -39t-165 -111t-111 -165.5t-39 -195.5q0 -104 40 -199q39 -91 110 -162q72 -72 165.5 -110.5t195.5 -38.5
q97 0 187 35q-3 5 -4.5 9.5t-3.5 9.5l-4 10q-2 5 -3 10q-27 -11 -55 -18t-57.5 -11t-59.5 -4q-95 0 -182 37t-150 100t-100 150t-37 182t37 182t100 150t150 100t182 37q76 0 147.5 -23.5t129.5 -67t101.5 -101.5t67 -129.5t23.5 -147.5q0 -59 -15 -116h-7q-21 0 -35.5 -15
t-14.5 -35q0 -14 6.5 -25.5t18 -18.5t25.5 -7q21 0 36 15t15 36q0 6 -2 12.5t-5 12.5q20 69 20 141zM644 -16q-35 0 -67 13t-57 35h-300l24 122q7 16 15.5 31t19 29t22.5 26q9 9 19 17t20.5 15t21.5 13t23 11q-39 22 -62.5 60.5t-23.5 84.5q0 34 13 64.5t35 52.5t53 35
t64 13q45 0 83 -22t60 -60t22 -83q0 -26 -7.5 -50t-22.5 -45q22 6 45 6q76 0 130 -54t54 -130t-54 -130t-130 -54zM556 278l-4 -3q-6 -5 -11 -10q-13 -13 -21.5 -29t-12.5 -33t-4 -35q0 -59 41.5 -100t100 -41t100 41t41.5 100t-41.5 100.5t-100.5 41.5q-50 0 -88 -32z
M271 74h214q-25 43 -25 93q0 60 35 108q-48 2 -92 -17q-41 -17 -72 -48q-30 -30 -47 -70zM464 564q-10 0 -20 -1.5t-19 -4.5t-17.5 -7.5t-16 -10t-14.5 -12.5t-12.5 -14.5t-10 -16t-7.5 -17.5t-4.5 -19t-1.5 -20q0 -51 36 -87t87 -36t87 36t36 87q0 20 -6 39t-17.5 34
t-26.5 26.5t-34 17.5t-39 6zM648 217l-26 29q-6 6 -8 9q-1 1 -3 2.5t-4 2.5l-4 2q-4 1 -7 0.5t-5 -4.5q-2 -3 -2.5 -6t0.5 -6q0 -3 1 -4l2 -4l2 -2l8 -9q1 -1 2 -2.5t2.5 -3t2.5 -3t3 -3.5l3 -3q4 -5 8.5 -10t9.5 -11l-1 -13h-37q-2 0 -4 -1t-4 -3q-4 -4 -4 -9t3.5 -8.5
t8.5 -3.5h37v-21h-37q-2 0 -4 -0.5t-4 -2.5q-4 -3 -4 -9q0 -5 3.5 -8t8.5 -3h37v-12q1 -9 5 -12t11 -3q6 -1 10 4q4 6 4 11v12h38q6 0 9.5 2.5t2.5 8.5q0 13 -15 13h-35l1 20l35 1q8 -1 11 3t3 9l-3 9q-4 4 -11 4h-36v12q10 9 17 18q6 6 13 15q3 2 4.5 4t3.5 4l2 2
q6 6 7.5 11.5t-1.5 10.5q-2 2 -4.5 3.5t-5.5 1.5q-6 0 -11 -5q-1 -1 -3.5 -3t-5.5 -6l-13 -13q-1 -1 -7.5 -7t-9.5 -10z" />
    <glyph glyph-name="uniE62E" unicode="&#xe62e;" 
d="M213 488h56v55h-56v-55zM213 283h56v56h-56v-56zM780 134h-428v-56h428q8 0 14.5 4t10 10t3.5 14t-3.5 14t-10 10t-14.5 4zM780 543h-428v-55h428q5 0 9.5 1t7.5 4l6 6q3 3 4 7.5t1 9.5q0 11 -8 19t-20 8zM846 711h-670q-23 0 -44 -9t-35.5 -24t-23.5 -35.5t-9 -43.5
v-595q0 -31 15 -56.5t40.5 -40.5t56.5 -15h670q46 0 78.5 32.5t32.5 79.5v595q0 47 -32.5 79.5t-78.5 32.5zM920 4q0 -31 -22 -53t-52 -22h-670q-31 0 -53 22t-22 53v595q0 31 22 53t53 22h670q30 0 52 -22t22 -53v-595zM780 339h-428v-56h428q8 0 14.5 3.5t10 10t3.5 14.5
q0 11 -8 19.5t-20 8.5zM213 78h56v56h-56v-56z" />
    <glyph glyph-name="uniE62F" unicode="&#xe62f;" 
d="M512 300zM782 395q-7 0 -12 -5t-5 -12v-99q0 -5 2 -9t6 -6.5t9 -2.5q7 0 12 5.5t5 12.5v99q0 7 -5 12t-12 5zM782 178q-7 0 -12 -5t-5 -12v-99q0 -5 2 -9t6 -6t9 -2q7 0 12 5t5 12v99q0 7 -5 12t-12 5zM328 559h-114q-7 0 -12 -5t-5 -12q0 -4 2 -8t6 -6.5t9 -2.5h114
q7 0 12.5 5t5.5 12q0 5 -2.5 9t-6.5 6t-9 2zM328 354h-114q-7 0 -12 -5t-5 -12t5 -12.5t12 -5.5h114q7 0 12.5 5.5t5.5 12.5q0 4 -2.5 8t-6.5 6.5t-9 2.5zM328 148h-114q-7 0 -12 -5t-5 -12q0 -4 2 -8t6 -6.5t9 -2.5h114q7 0 12.5 5t5.5 12t-5.5 12t-12.5 5zM539 559h-115
q-7 0 -12 -5t-5 -12q0 -4 2.5 -8t6.5 -6.5t8 -2.5h115q7 0 12 5t5 12q0 5 -2.5 9t-6.5 6t-8 2zM539 354h-115q-7 0 -12 -5t-5 -12t5 -12.5t12 -5.5h115q7 0 12 5.5t5 12.5q0 4 -2.5 8t-6.5 6.5t-8 2.5zM539 148h-115q-7 0 -12 -5t-5 -12q3 -14 17 -17h115q7 0 12 5t5 12
q0 5 -2.5 9t-6.5 6t-8 2zM1007 -105h-61v643h-276v202h-590v-845h-63q-4 0 -8 -2.5t-6.5 -6.5t-2.5 -9q0 -3 1.5 -6t4 -5.5t5.5 -4t6 -1.5h63h555h35h276h61q2 0 5 1t5 2.5t3.5 3.5t2.5 5t1 5q0 5 -2.5 9t-6.5 6.5t-8 2.5zM114 -105v810h521v-167v-643h-521zM670 -105v608
h241v-608h-241z" />
    <glyph glyph-name="uniE630" unicode="&#xe630;" 
d="M138 254q-15 0 -28.5 4t-24 12t-19 18.5t-12.5 24t-4 27.5q0 35 25.5 60.5t62.5 25.5q18 0 34 -7t28 -18.5t19 -27.5t7 -33q0 -12 -3 -23t-9 -20.5t-14 -17.5t-17.5 -13.5t-21 -8.5t-23.5 -3zM515 254q-24 0 -44.5 11.5t-32 31t-11.5 43.5q0 35 25.5 60.5t62.5 25.5
q24 0 44 -11.5t32 -31.5t12 -43q0 -14 -4.5 -27.5t-12.5 -24t-19 -18.5t-24.5 -12t-27.5 -4zM892 254q-18 0 -34.5 6.5t-28 18t-18.5 27.5t-7 34q0 35 25.5 60.5t62 25.5t62.5 -25.5t26 -61t-26 -60.5t-62 -25z" />
    <glyph glyph-name="uniE631" unicode="&#xe631;" 
d="M1023 -105l-106 -106l-266 266q-34 -24 -71.5 -40t-79 -25t-84.5 -9q-68 0 -131.5 21t-114.5 59.5t-89.5 89.5t-59 114.5t-20.5 130.5q0 113 55.5 208.5t151 151.5t208 56t208.5 -56t151.5 -151.5t55.5 -208.5q0 -64 -19 -124t-55 -111zM416 684q-119 0 -203.5 -84.5
t-84.5 -203.5t84.5 -203t203.5 -84q58 0 111.5 22.5t92 61t61 92t22.5 111.5q0 119 -84 203.5t-203 84.5z" />
    <glyph glyph-name="uniE632" unicode="&#xe632;" 
d="M696 221q8 -7 18.5 -4.5t16.5 12.5q4 7 4 18q-3 10 -10 17q-3 2 -7 4.5t-7.5 4.5t-7.5 4t-7.5 4t-8 4t-8.5 4q4 4 8 7.5t7.5 8t6.5 8.5t6 9l6 8q3 5 5.5 9.5t4.5 9.5l4 10q19 43 19 93q0 63 -31 116t-84.5 84t-117.5 31q-96 0 -163 -68.5t-67 -164.5q0 -46 17.5 -88.5
t50.5 -74.5q-101 -47 -161.5 -140.5t-60.5 -204.5q0 -4 1.5 -8t3.5 -7t5 -5.5t7 -3.5t8 -1q11 0 18 7t7 18q0 103 59.5 188.5t156.5 120.5q36 -21 77.5 -28t82.5 0.5t77 27.5q38 -14 64 -30zM694 450q0 -20 -3.5 -38t-11.5 -35q-11 -27 -39 -55q-52 -52 -126.5 -52
t-127.5 52.5t-53 127t53 127t127 52.5q85 0 140 -65q41 -51 41 -114zM889 59l-95 95q-8 8 -20 8t-20 -8q-7 -8 -8 -18v-5q0 -2 1 -4t1.5 -3.5t1.5 -3.5l4 -3l50 -49h-172q-11 0 -19 -8t-8 -19q0 -2 0.5 -4.5t1 -4.5t1.5 -4l4 -4q1 -2 2.5 -3.5t3.5 -2.5t4.5 -2t4.5 -1.5
t5 -0.5h172l-50 -49q-7 -9 -8 -19q0 -7 2 -11.5t6 -7.5q6 -8 19 -8t19 8l95 95q1 1 2 2.5t2 3.5t2 3q4 10 0 20q0 4 -4 8z" />
    <glyph glyph-name="uniE633" unicode="&#xe633;" 
d="M795 730q39 -14 64.5 -45t32 -69t-6.5 -78q-21 -58 -77.5 -84.5t-115 -5t-84.5 78t-5 114.5q14 38 45 64t69 32t78 -7zM301 419q35 -12 59 -41t30 -64t-6 -72q-13 -35 -42 -59t-64 -30t-72 6q-54 20 -78 72t-4.5 106t71.5 78t106 4zM814 109q50 -18 72 -65.5t4 -97.5
q-9 -24 -26.5 -42.5t-39.5 -28.5t-47 -12t-50 8q-49 18 -71.5 65.5t-4.5 96.5q12 33 38.5 55t58.5 27t66 -6zM306 246l25 39l437 -283l-25 -38zM754 637l26 -38l-492 -337l-26 39z" />
    <glyph glyph-name="uniE634" unicode="&#xe634;" horiz-adv-x="1028" 
d="M514 -36q4 0 8 -1t7 -3l237 -127q24 -13 46 2q21 15 17 39l-46 276q-1 8 1 15.5t8 13.5l199 198q18 18 10 41q-3 7 -8 13t-11.5 9.5t-14.5 4.5l-272 41q-17 2 -24 18l-118 245q-12 24 -39 24t-39 -24l-118 -245q-2 -5 -6 -9t-8.5 -6t-9.5 -3l-272 -41q-26 -3 -34 -27
q-8 -23 10 -41l199 -198q5 -6 7.5 -13.5t1.5 -15.5l-46 -275q-4 -25 17 -40q22 -15 46 -2l236 127q8 4 16 4z" />
    <glyph glyph-name="uniE635" unicode="&#xe635;" horiz-adv-x="1028" 
d="M787 -196q-17 0 -32 8l-237 127q-4 3 -8 1l-237 -128q-16 -8 -35.5 -7t-34.5 11q-34 23 -27 62l46 276q1 5 -3 8l-199 199q-13 13 -17 30t2 34t20.5 29t32.5 14l271 41q5 1 7 5l118 245q8 17 24.5 27t35.5 10t35.5 -10t24.5 -27l118 -245q3 -4 7 -5l271 -41
q8 -1 14.5 -3.5t12.5 -6.5t11 -9t8.5 -11t6.5 -13q12 -37 -15 -64l-199 -199q-4 -3 -3 -8l46 -276q3 -18 -4 -35t-23 -27q-17 -12 -38 -12zM514 -13q14 0 27 -7l236 -127q11 -6 22 1q9 6 7 17l-46 275q-1 9 0 18t5 17t11 14l199 199q1 1 2.5 3t2 4.5t0 4.5t-0.5 4
q-2 5 -6 8.5t-10 3.5l-271 41q-7 1 -13.5 3.5t-11.5 6.5t-9.5 9.5t-7.5 11.5l-118 245q-5 9 -18 9t-18 -9l-118 -245q-13 -27 -42 -31l-272 -41q-11 -1 -15 -12q-3 -9 4 -16l199 -199q21 -20 16 -49l-46 -275q-2 -11 7 -17q11 -7 22 -1l236 127q13 7 27 7z" />
    <glyph glyph-name="uniE636" unicode="&#xe636;" 
d="M512 812q-188 0 -332 -122q-136 -116 -171 -292q-9 -49 -9 -98q0 -104 40.5 -199t109 -163.5t163.5 -109t199 -40.5t199 40.5t163.5 109t109 163.5t40.5 199q0 83 -26 161.5t-73 141.5t-110 110t-141.5 73t-161.5 26zM794 140q-5 -4 -11.5 -4t-14 4t-16 12t-16.5 20
q-14 -38 -36 -71q51 -18 51 -47q0 -25 -39 -43t-94 -18q-66 0 -106 24q-39 -24 -106 -24q-55 0 -93.5 18t-38.5 43q0 29 50 47q-21 32 -36 71q-16 -23 -31.5 -31.5t-25.5 -0.5q-14 13 -9.5 52.5t24.5 81.5q5 10 10 18.5t10 16.5q3 124 74.5 211t171.5 87q101 0 172.5 -87
t74.5 -211q3 -5 6.5 -10.5t6.5 -11.5t6 -13q10 -21 16.5 -42.5t8.5 -39.5t0 -31.5t-9 -20.5z" />
    <glyph glyph-name="uniE637" unicode="&#xe637;" 
d="M512 -147q-73 0 -141 22.5t-123 64t-96.5 96t-64 123t-22.5 141.5q0 90 35.5 173t95 143t142.5 95t174 35q72 0 140.5 -22.5t123.5 -63.5t96 -96t63.5 -123.5t22.5 -140.5q0 -91 -35 -174t-95 -142.5t-142.5 -95t-173.5 -35.5zM780 121l-168 146l-100 -81l-101 81
l-167 -146h536zM244 153l150 130l-150 114v-244zM780 478h-536v-48l268 -212l268 212v48zM780 397l-151 -114l151 -130v244z" />
    <glyph glyph-name="uniE638" unicode="&#xe638;" horiz-adv-x="1025" 
d="M320 504q-5 0 -11 -1.5t-11 -4.5t-8.5 -7t-6 -9t-2.5 -11q0 -10 6 -17.5t15 -11.5t18.5 -4t17 4t11.5 11.5t4 17.5q0 15 -9 24t-24 9zM502 438q6 0 11 1.5t9 4.5t7 7t4.5 9t1.5 11q0 15 -9 24t-24 9t-27 -9.5t-12 -23.5t12 -23.5t27 -9.5zM512 812q-139 0 -257 -68.5
t-186.5 -186.5t-68.5 -257t68.5 -257t186.5 -186.5t257 -68.5q104 0 199 40.5t163.5 109t109 163.5t40.5 199q0 188 -122 332q-116 136 -292 171q-49 9 -98 9zM405 168q-9 0 -18 0.5t-20 2.5t-15.5 2.5t-19.5 4t-18 3.5l-91 -46l26 79q-104 74 -104 178q0 93 76 158.5
t184 65.5q96 0 170.5 -53t91.5 -132q-4 0 -8 0.5t-9 0.5h-8q-92 0 -156.5 -60.5t-64.5 -147.5q0 -27 8 -55q-12 -1 -24 -1zM788 76l20 -66l-72 39q-52 -13 -78 -13t-51 5t-46.5 14.5t-41 22.5t-34.5 29.5t-25.5 35.5t-16.5 40.5t-6 43.5q0 20 4.5 39t13 35.5t20.5 32
t26.5 28.5t32.5 23.5t37.5 17.5t41.5 11t45 4q89 0 155 -56.5t66 -134.5q0 -82 -91 -151zM730 313q-10 0 -18 -8.5t-8 -17.5q0 -7 3.5 -13t9.5 -10t13 -4q14 0 23 8t9 18.5t-9 18.5t-23 8zM587 313q-10 0 -18 -8.5t-8 -17.5q0 -7 3.5 -13t9.5 -10t13 -4q5 0 10.5 1.5t9.5 4
t6.5 6t4 7.5t1.5 8q0 10 -9 18t-23 8z" />
    <glyph glyph-name="uniE639" unicode="&#xe639;" 
d="M508 839q-126 0 -232 -61.5t-167.5 -167.5t-61.5 -232q0 -94 36.5 -179t98.5 -147t147 -98.5t178.5 -36.5t179 36.5t147.5 98.5t98.5 147t36.5 179t-36.5 179.5t-98.5 147t-147 98t-179 36.5zM465 148q-45 0 -87.5 11t-76 30t-54 48t-20.5 63q0 76 84 160q54 54 108.5 75
t78.5 -4q10 -10 11 -27t-5 -38q-4 -13 12 -7l2 1q83 35 119 8q5 -3 8 -8q13 -18 0 -58q-4 -10 10 -14q29 -9 49.5 -28.5t20.5 -49.5q-1 -10 -4.5 -21.5t-9.5 -22.5t-15 -22t-20 -21.5t-25 -20t-29.5 -17.5t-33.5 -15t-37.5 -11.5t-41 -7.5t-44.5 -3zM678 447q7 20 -8 35
q-14 18 -35 11q-5 -1 -10 0.5t-8.5 5t-4.5 8.5q0 4 0.5 7.5t2.5 6.5t5 5.5t7 2.5q40 10 69 -22q14 -15 17.5 -34.5t-2.5 -37.5q-7 -16 -25 -12q-14 9 -8 24v0zM786 413q-3 -9 -10.5 -13.5t-15.5 -1.5q-9 3 -13.5 11t-1.5 16q10 26 4 54.5t-26 50t-47.5 30t-54.5 2.5
q-21 -3 -27 17q-3 20 16 26q40 8 78.5 -4t65.5 -43q28 -30 36.5 -69.5t-4.5 -75.5zM786 413zM623 318q-3 31 -28.5 54.5t-66 34.5t-86.5 6q-70 -8 -117 -45.5t-42 -83.5q3 -31 28.5 -54.5t66 -34.5t85.5 -6q35 4 65.5 16t52 29.5t33 39.5t9.5 44zM524 267q-13 -32 -49 -47
t-72 -4q-33 11 -46 40.5t1 59.5q9 20 28 33.5t41.5 17.5t45.5 -1q23 -6 38 -21.5t18.5 -35.5t-5.5 -42zM524 267zM428 302q-11 5 -23 0.5t-20 -14.5q-4 -7 -4 -14.5t3.5 -13.5t10.5 -9q8 -3 16 -2.5t15.5 5t11.5 11.5q8 10 4.5 20.5t-14.5 16.5zM428 302zM465 316
q-10 4 -16 -6q-8 -10 4 -14q10 -3 16 6q4 11 -4 14zM465 316z" />
  </font>
</defs>
</svg>
